<svg xmlns="http://www.w3.org/2000/svg" xmlns:xlink="http://www.w3.org/1999/xlink" width="324.956" height="229.748" viewBox="0 0 324.956 229.748">
  <defs>
    <clipPath id="clip-path">
      <rect id="Rectangle_6828" data-name="Rectangle 6828" width="19.748" height="3.76" fill="none"/>
    </clipPath>
    <clipPath id="clip-path-2">
      <rect id="Rectangle_6829" data-name="Rectangle 6829" width="39.496" height="5.846" fill="none"/>
    </clipPath>
    <clipPath id="clip-path-3">
      <rect id="Rectangle_6831" data-name="Rectangle 6831" width="17.868" height="23.666" fill="none"/>
    </clipPath>
    <clipPath id="clip-path-4">
      <rect id="Rectangle_6832" data-name="Rectangle 6832" width="14.268" height="18.638" fill="none"/>
    </clipPath>
    <clipPath id="clip-path-5">
      <rect id="Rectangle_6833" data-name="Rectangle 6833" width="2.794" height="9.3" fill="none"/>
    </clipPath>
    <clipPath id="clip-path-6">
      <rect id="Rectangle_6834" data-name="Rectangle 6834" width="21.028" height="23.817" fill="none"/>
    </clipPath>
    <clipPath id="clip-path-7">
      <rect id="Rectangle_6835" data-name="Rectangle 6835" width="96.977" height="22.099" fill="none"/>
    </clipPath>
    <clipPath id="clip-path-8">
      <rect id="Rectangle_6836" data-name="Rectangle 6836" width="17.313" height="22.958" fill="none"/>
    </clipPath>
    <clipPath id="clip-path-9">
      <rect id="Rectangle_6837" data-name="Rectangle 6837" width="12.905" height="24.945" fill="none"/>
    </clipPath>
    <clipPath id="clip-path-10">
      <rect id="Rectangle_6839" data-name="Rectangle 6839" width="14.724" height="7.925" fill="none"/>
    </clipPath>
    <clipPath id="clip-path-11">
      <rect id="Rectangle_6840" data-name="Rectangle 6840" width="11.074" height="3.534" fill="none"/>
    </clipPath>
    <clipPath id="clip-path-12">
      <rect id="Rectangle_6841" data-name="Rectangle 6841" width="2.255" height="3.788" fill="none"/>
    </clipPath>
    <clipPath id="clip-path-13">
      <rect id="Rectangle_6842" data-name="Rectangle 6842" width="3.984" height="3.984" fill="none"/>
    </clipPath>
    <clipPath id="clip-path-14">
      <rect id="Rectangle_6871" data-name="Rectangle 6871" width="56.072" height="53.779" fill="none"/>
    </clipPath>
    <clipPath id="clip-path-15">
      <rect id="Rectangle_6847" data-name="Rectangle 6847" width="9.745" height="16.833" fill="none"/>
    </clipPath>
    <clipPath id="clip-path-16">
      <rect id="Rectangle_6848" data-name="Rectangle 6848" width="8.757" height="5.967" fill="none"/>
    </clipPath>
  </defs>
  <g id="Group_11887" data-name="Group 11887" transform="translate(-25 -129)">
    <g id="Group_11885" data-name="Group 11885" transform="matrix(0.995, 0.105, -0.105, 0.995, 45.787, 129)" opacity="0.255">
      <path id="Path_17324" data-name="Path 17324" d="M37.327,172.757C21.281,163.141,7.584,147.79,2.24,129.009S1.118,88.1,14.873,75.574C31.992,59.988,57.354,62.467,79.644,58.38c28.734-5.268,53.938-22.325,79.715-36.586S214.154-4.434,242.966,1.6c23.2,4.86,44.108,21.889,54.769,44.6s10.821,50.581.419,72.986c-15.009,32.326-48.151,49.657-80.242,60.946-23.649,8.32-43.3,16-72.625,18.709C90.438,199.56,53.374,182.374,37.327,172.757Z" transform="translate(0 0)" fill="#fff"/>
    </g>
    <g id="Group_11886" data-name="Group 11886" transform="translate(84 170)">
      <path id="Path_17195" data-name="Path 17195" d="M344.866,620.481a27.061,27.061,0,0,1,3.167-1.945c5.7-2.931,11.043-5.939,15.5-10.556,5.276-5.468,8.975-12.853,8.975-20.6s-4.169-15.692-11.033-18.906c-8.543-4-18.317-.2-27.613.762-11.984,1.236-23.9-2.412-35.724-4.931s-24.678-3.8-35.418,1.745a32.447,32.447,0,0,0-16.68,23.147,33.84,33.84,0,0,0,8.064,27.816c9.595,10.607,24.686,13.463,38.68,14.14a186.5,186.5,0,0,0,30.9-1.072A33.8,33.8,0,0,0,336.7,626.3C339.636,624.643,342.14,622.393,344.866,620.481Z" transform="translate(-220.065 -525.127)" fill="none" stroke="#fae1a8" stroke-miterlimit="10" stroke-width="2.596"/>
      <path id="Path_17196" data-name="Path 17196" d="M283.031,552.387c-7.2-.852-14.453-2.593-20.818-6.407s-11.8-9.9-13.918-17.354-.445-16.229,5.011-21.2c6.791-6.183,16.851-5.2,25.693-6.82,11.4-2.09,21.4-8.856,31.621-14.513s21.736-10.4,33.165-8.01c9.2,1.928,17.5,8.683,21.726,17.694a35.01,35.01,0,0,1,.166,28.952c-5.954,12.823-19.1,19.7-31.83,24.176a172.7,172.7,0,0,1-28.808,7.421,34.046,34.046,0,0,1-10.89.519,14.243,14.243,0,0,1-9.482-5.454Z" transform="translate(-221.734 -447.311)" fill="#fae1a8"/>
      <line id="Line_768" data-name="Line 768" x2="207.788" transform="translate(0 122.141)" fill="none" stroke="#102048" stroke-miterlimit="10" stroke-width="5"/>
      <g id="Group_11824" data-name="Group 11824" transform="translate(8.786 129.893)" opacity="0.15">
        <g id="Group_11823" data-name="Group 11823" transform="translate(0 0)">
          <g id="Group_11822" data-name="Group 11822" clip-path="url(#clip-path)">
            <path id="Path_17204" data-name="Path 17204" d="M168.081,1653.13c0,1.038-4.421,1.88-9.874,1.88s-9.874-.842-9.874-1.88,4.421-1.88,9.874-1.88,9.874.842,9.874,1.88" transform="translate(-148.333 -1651.25)" fill="#1f3c88"/>
          </g>
        </g>
      </g>
      <path id="Path_17205" data-name="Path 17205" d="M160.831,1555.211c-2.137,0-4.515-3.128-4.515-5.247a3.83,3.83,0,1,1,7.658,0c0,2.029-.853,5.247-3.143,5.247m-.686-7.855a2.572,2.572,0,0,0-2.53,2.608c0,1.586,1.923,3.948,3.215,3.948,1.187,0,1.844-2.334,1.844-3.948a2.573,2.573,0,0,0-2.53-2.608" transform="translate(-146.701 -1427.097)" fill="#1f3c88"/>
      <path id="Path_17206" data-name="Path 17206" d="M196.907,1531.685h-5.621a1.8,1.8,0,0,1-1.789-1.647l-1.163-14.008h11.758l-1.4,14.038a1.8,1.8,0,0,1-1.787,1.618" transform="translate(-175.391 -1400.191)" fill="#1f3c88"/>
      <path id="Path_17207" data-name="Path 17207" d="M190.574,1353.045a8.786,8.786,0,0,0-.346,3.982,8.579,8.579,0,0,0,.553,1.894,10.992,10.992,0,0,0,.967,1.742,14.742,14.742,0,0,0,1.261,1.578c.11.119.23.267.35.412s.243.283.353.437l.312.479a4.143,4.143,0,0,1,.258.521,3.042,3.042,0,0,1,.19.559,2.78,2.78,0,0,1,.1.591,1.251,1.251,0,0,1,0,.3l-.02.3c-.014.1-.042.2-.063.3a1.472,1.472,0,0,1-.085.288l-.114.276c-.046.087-.1.171-.146.256a1.81,1.81,0,0,1-.163.241,1.947,1.947,0,0,1-.181.224,3.377,3.377,0,0,1-.883.712l-.217-.344a3.147,3.147,0,0,0,1.009-1.58.936.936,0,0,0,.041-.221c.007-.074.022-.147.025-.222l-.01-.223a.759.759,0,0,0-.026-.22,2.075,2.075,0,0,0-.11-.435,2.205,2.205,0,0,0-.18-.422,4.412,4.412,0,0,0-.235-.406l-.279-.39c-.1-.126-.218-.243-.325-.366l-.345-.376c-.247-.265-.493-.53-.719-.816s-.447-.575-.657-.874a10.5,10.5,0,0,1-1.031-1.948,8.249,8.249,0,0,1-.513-2.159,7.7,7.7,0,0,1,.851-4.245Z" transform="translate(-176.268 -1254.008)" fill="#d3dfff"/>
      <path id="Path_17208" data-name="Path 17208" d="M248.031,1350.518a4.858,4.858,0,0,1,1.6,2.383,5.333,5.333,0,0,1,.212,1.466,6.757,6.757,0,0,1-.171,1.455,8.653,8.653,0,0,1-.454,1.366l-.123.3c-.036.094-.081.188-.112.283l-.079.284c-.029.1-.032.186-.052.279a1.3,1.3,0,0,0-.019.274,1.241,1.241,0,0,0,.023.264,1.542,1.542,0,0,0,.062.253,1.637,1.637,0,0,0,.12.235,2.007,2.007,0,0,0,.889.731l-.08.4a2.179,2.179,0,0,1-1.381-.681,1.913,1.913,0,0,1-.416-.722,1.928,1.928,0,0,1-.088-.406,2.135,2.135,0,0,1-.021-.405,2.711,2.711,0,0,1,.032-.4l.078-.379c.031-.124.075-.239.113-.359s.078-.243.115-.336a9.859,9.859,0,0,0,.386-1.221,7.281,7.281,0,0,0,.184-1.24,5.681,5.681,0,0,0-.08-1.233,5.949,5.949,0,0,0-1.031-2.317Z" transform="translate(-228.618 -1251.882)" fill="#d3dfff"/>
      <g id="Group_11827" data-name="Group 11827" transform="translate(165.851 128.724)" opacity="0.15">
        <g id="Group_11826" data-name="Group 11826" transform="translate(0 0)">
          <g id="Group_11825" data-name="Group 11825" clip-path="url(#clip-path-2)">
            <path id="Path_17209" data-name="Path 17209" d="M1535.953,1642.923c0,1.615-8.841,2.923-19.748,2.923s-19.748-1.309-19.748-2.923,8.842-2.923,19.748-2.923,19.748,1.309,19.748,2.923" transform="translate(-1496.458 -1640)" fill="#1f3c88"/>
          </g>
        </g>
      </g>
      <g id="Group_11884" data-name="Group 11884" transform="translate(164.739 54.989)">
        <rect id="Rectangle_6830" data-name="Rectangle 6830" width="2.772" height="27.11" transform="translate(15.661 29.043)" fill="#27481f"/>
        <path id="Path_17210" data-name="Path 17210" d="M1571.319,1019.58a38.552,38.552,0,0,1-.372,4.682c-.117.821-.216,1.294-.216,1.294-7.567-2.455-11.038-7.146-12.483-11.877-.135-.431-.249-.865-.348-1.3a26.793,26.793,0,0,1,.52-12.857,14.957,14.957,0,0,1,7.917,4.183,13.569,13.569,0,0,1,.909,1.032c3.487,4.37,4.155,10.4,4.072,14.839" transform="translate(-1553.579 -992.358)" fill="#49883a"/>
        <path id="Path_17211" data-name="Path 17211" d="M1659.226,944.689c-.151,5.264-2.2,11.4-8.549,17.285q-.729.678-1.541,1.354c-.057.049-.114.1-.171.143a26.541,26.541,0,0,1-2.136-4.053c-.015-.036-.031-.07-.044-.107a30.058,30.058,0,0,1-1.1-2.991,28.23,28.23,0,0,1-.728-2.861,20.905,20.905,0,0,1,1.346-13.015,24.271,24.271,0,0,1,8.928-9.869,25.615,25.615,0,0,1,3.994,14.115" transform="translate(-1631.678 -930.575)" fill="#49883a"/>
        <g id="Group_11830" data-name="Group 11830" transform="translate(1.164 11.35)" opacity="0.5">
          <g id="Group_11829" data-name="Group 11829" transform="translate(0 0)">
            <g id="Group_11828" data-name="Group 11828" clip-path="url(#clip-path-3)">
              <path id="Path_17212" data-name="Path 17212" d="M1550.243,1059.824q-.729.678-1.541,1.354c-.057.049-.114.1-.172.143a26.548,26.548,0,0,1-2.136-4.054c-.015-.034-.03-.072-.044-.106h0q-.138-.321-.275-.664c-.035-.087-.069-.178-.1-.267-.06-.153-.119-.3-.178-.462-.046-.124-.091-.254-.136-.381s-.1-.264-.142-.4q-.135-.4-.264-.816a28.157,28.157,0,0,1-.728-2.861,21.568,21.568,0,0,1,.387-10.5,13.473,13.473,0,0,0-.909-1.031,37.139,37.139,0,0,0-2.052,10.3,29.534,29.534,0,0,0-6.385-1.628c.1.431.213.865.348,1.3-1.078-.257-2.245-.483-3.505-.67,1,3.394,4.986,14.2,15.4,14.364.265.005.533,0,.806-.008.429-.013.868-.047,1.32-.1a10.118,10.118,0,0,0,.309-3.508" transform="translate(-1532.408 -1039.775)" fill="#27481f"/>
            </g>
          </g>
        </g>
        <path id="Path_17213" data-name="Path 17213" d="M1538.643,1141.628a.088.088,0,0,1,0,.026c-.005.065-.01.127-.018.187-.005.029-.008.057-.01.086-.005.049-.01.1-.018.143-.018.143-.039.275-.06.4-.013.083-.029.164-.044.242a7.787,7.787,0,0,1-.294,1.115,16.142,16.142,0,0,1-2.128,0c-12.329-.826-14.86-16.152-14.86-16.152.4.049.785.1,1.164.164,1.26.187,2.427.413,3.505.67,4.456,1.06,7.405,2.658,9.339,4.425a11.323,11.323,0,0,1,1.479,1.629,9.909,9.909,0,0,1,1.881,4.529c.044.291.073.574.091.85a10.864,10.864,0,0,1-.023,1.686" transform="translate(-1521.208 -1107.189)" fill="#49883a"/>
        <g id="Group_11833" data-name="Group 11833" transform="translate(13.28 14.114)" opacity="0.38">
          <g id="Group_11832" data-name="Group 11832" transform="translate(0 0)">
            <g id="Group_11831" data-name="Group 11831" clip-path="url(#clip-path-4)">
              <path id="Path_17214" data-name="Path 17214" d="M1663.251,1066.375a21.755,21.755,0,0,1-1.952,8.408,27.712,27.712,0,0,1-6.6,8.876l-.039.034q-.281.261-.577.522c-.057.052-.114.1-.174.156-.244.213-.494.429-.751.642-.018-.275-.047-.559-.091-.85a9.911,9.911,0,0,0-1.881-4.529,11.314,11.314,0,0,0-1.479-1.629,28.194,28.194,0,0,1-.728-2.861,13.939,13.939,0,0,1,1.874,1.3,11.462,11.462,0,0,1,1.044.972,18.612,18.612,0,0,1,11.35-11.038" transform="translate(-1648.983 -1066.375)" fill="#27481f"/>
            </g>
          </g>
        </g>
        <g id="Group_11836" data-name="Group 11836" transform="translate(14.687 27.375)" opacity="0.2">
          <g id="Group_11835" data-name="Group 11835" transform="translate(0 0)">
            <g id="Group_11834" data-name="Group 11834" clip-path="url(#clip-path-5)">
              <path id="Path_17215" data-name="Path 17215" d="M1665.264,1201.015a.09.09,0,0,1,0,.026c-.005.065-.01.127-.018.187-.005.029-.008.057-.01.086-.005.049-.01.1-.018.143-.018.143-.039.276-.06.4-.016.083-.029.164-.044.242a7.775,7.775,0,0,1-.294,1.115,16.165,16.165,0,0,1-2.128,0,25.369,25.369,0,0,1,.291-7.8c.094-.481.205-.972.335-1.468a9.909,9.909,0,0,1,1.881,4.529c.044.291.073.575.091.85a10.85,10.85,0,0,1-.023,1.686" transform="translate(-1662.516 -1193.95)" fill="#27481f"/>
            </g>
          </g>
        </g>
        <path id="Path_17216" data-name="Path 17216" d="M1594.036,1437.5l-3.048,19.95a4.555,4.555,0,0,1-4.5,3.866h-9.151a4.552,4.552,0,0,1-4.326-3.131,4.6,4.6,0,0,1-.177-.735l-3.048-19.95Z" transform="translate(-1564.734 -1384.813)" fill="#fbc343"/>
        <path id="Path_17217" data-name="Path 17217" d="M1679.935,1087.965s-3.34-19.806,17.9-22.661c0,0,1.332,21.7-17.9,22.661" transform="translate(-1663.267 -1051.301)" fill="#49883a"/>
        <g id="Group_11839" data-name="Group 11839" transform="translate(8.274 52.687)" opacity="0.4">
          <g id="Group_11838" data-name="Group 11838" transform="translate(0)">
            <g id="Group_11837" data-name="Group 11837" clip-path="url(#clip-path-6)">
              <path id="Path_17218" data-name="Path 17218" d="M1621.837,1437.5l-3.048,19.95a4.555,4.555,0,0,1-4.5,3.866h-9.151a4.552,4.552,0,0,1-4.326-3.131c11.882-1.9,15.068-14.138,15.713-20.686Z" transform="translate(-1600.808 -1437.5)" fill="#c89b35"/>
            </g>
          </g>
        </g>
      </g>
      <g id="Group_11842" data-name="Group 11842" transform="translate(46.276 127.476)" opacity="0.15">
        <g id="Group_11841" data-name="Group 11841" transform="translate(0 0)">
          <g id="Group_11840" data-name="Group 11840" clip-path="url(#clip-path-7)">
            <path id="Path_17219" data-name="Path 17219" d="M542.205,1632.4c0-2.437-21.709-4.412-48.489-4.412s-48.488,1.975-48.488,4.412c0,1.976,14.282,3.649,33.968,4.211,2.144,3.517-1.435,7.723-4.177,9.24-4.816.241-8.272.776-7.728,1.919,2.574,5.4,24.447-.346,24.447-.346s8.553.531,8.553-.282c0-.374-1.506-.716-3.984-.975l.183-.011-9.234-9.383q3.171.038,6.46.039c26.78,0,48.489-1.975,48.489-4.412" transform="translate(-445.228 -1627.992)" fill="#1f3c88"/>
          </g>
        </g>
      </g>
      <path id="Path_17220" data-name="Path 17220" d="M503.439,1128.221c-.639,10.547-5.956,21.086-14.671,26.886-10.388,6.914-24.913,5.384-36.744,6.265-10.227.761-20.533,1.416-30.762.327-8.382-.894-16.838-4.215-20.842-12.353-4.012-8.156-4.446-18.994-.434-27.25a26.451,26.451,0,0,1,5-7.018c.327-.335.668-.663,1.013-.982.234-.216.47-.429.712-.637.369-.32.748-.632,1.133-.936.127-.1.255-.2.385-.3s.257-.2.387-.291.26-.192.392-.286l.3-.21q.246-.175.5-.343a34.809,34.809,0,0,1,4.693-2.656,37.38,37.38,0,0,1,4.843-1.884c5.381-1.671,11-2.263,16.554-2.993a273.476,273.476,0,0,1,35.658-2.066c9.692,0,20.605,1.452,27.086,9.773a25.247,25.247,0,0,1,4.8,16.949" transform="translate(-355.905 -1028.745)" fill="#ee6f57"/>
      <path id="Path_17221" data-name="Path 17221" d="M1226.465,1146.611s2.5-2.348,3.824-3.708-1.566-1.4-2.99.291a3.707,3.707,0,0,0-.834,3.417" transform="translate(-1098.883 -1064.948)" fill="#f9b384"/>
      <path id="Path_17222" data-name="Path 17222" d="M481.793,1168.3a34.8,34.8,0,0,0-4.693,2.656q-.253.168-.5.343l-.3.21c-.133.094-.262.19-.392.286s-.26.192-.387.291-.257.2-.385.3q-.569.452-1.117.928l-.016.008c-.242.208-.478.421-.712.637-.346.32-.686.647-1.013.982a.662.662,0,0,0,.5.6c1.95.395,2.927,2.255,4.5,3.313a4.317,4.317,0,0,0,3.866.55,14.942,14.942,0,0,0-1.591,9.364,12.007,12.007,0,0,0,.952,2.947,13.606,13.606,0,0,1-4.309-7.209.779.779,0,0,0-1.514.372c.9,3.648,3.176,7.154,5.545,8.524a5.086,5.086,0,0,0,1.7.63,11.927,11.927,0,0,0,1.569,1.661l3.5.98,2.858-18.449Z" transform="translate(-423.196 -1088.602)" fill="#b35341"/>
      <path id="Path_17223" data-name="Path 17223" d="M508.56,897.079a75.6,75.6,0,0,1-15.189-7.817,5.868,5.868,0,0,1-2.461-5.837l3.734-21.768a6.715,6.715,0,0,1,3.959-5.041,66.41,66.41,0,0,1,16.972-4.749,40.852,40.852,0,0,1,6.561.13c2.42.239,7.96,1.871,11.482,2.965a6.825,6.825,0,0,1,4.34,4.05,123.052,123.052,0,0,1,4.64,13.707c2.642,12,2.209,11.108,2.209,11.108l2.728,18.449L518.564,903.9l-7.405-3.378Z" transform="translate(-439.811 -804.993)" fill="#708cd5"/>
      <path id="Path_17224" data-name="Path 17224" d="M696.841,623.062s-2.566-5.262-9.387-2.858c-4.937-1.072-8.7,4.774-5.067,12.732l6.853,1.592Z" transform="translate(-610.162 -596.909)" fill="#102048"/>
      <path id="Path_17225" data-name="Path 17225" d="M718.872,796.25v9.307a3.946,3.946,0,0,1-3.944,3.944,5.345,5.345,0,0,1-5.345-5.345V796.25Z" transform="translate(-635.832 -755.222)" fill="#f9b384"/>
      <path id="Path_17226" data-name="Path 17226" d="M739.594,831.2v5.077c-4.139.021-6.886-5.332-6.886-5.332Z" transform="translate(-656.553 -786.316)" fill="#e28b6d"/>
      <path id="Path_17227" data-name="Path 17227" d="M716.807,678.03a17.965,17.965,0,0,1-1.117,3.77c-.894,2.04-2.258,3.594-4.342,3.638-4.877.1-8.64-6.561-8.64-6.561l.779-9.094,3.7-4.157,10.2,6.3a34.434,34.434,0,0,1-.582,6.1" transform="translate(-629.672 -638.174)" fill="#f9b384"/>
      <path id="Path_17228" data-name="Path 17228" d="M698.005,659.412a13.417,13.417,0,0,1,4.515-6.756s5.1,6.659,10.491,3.443,3.053-9.549-1.981-8.575l-5.781-.65-7.243,2.306-1.234,5.684Z" transform="translate(-624.351 -621.372)" fill="#102048"/>
      <g id="Group_11845" data-name="Group 11845" transform="translate(61.46 62.248)" opacity="0.4">
        <g id="Group_11844" data-name="Group 11844" transform="translate(0 0)">
          <g id="Group_11843" data-name="Group 11843" clip-path="url(#clip-path-8)">
            <path id="Path_17229" data-name="Path 17229" d="M608.634,1023.374c-4.913-10.616-11.106-5.549-12.622-9.447-2.124-5.461-1.721-11.639-1.732-13.512l-2.959,16.662s6.607.628,9.049,4.606Z" transform="translate(-591.321 -1000.416)" fill="#1f3c88"/>
          </g>
        </g>
      </g>
      <path id="Path_17230" data-name="Path 17230" d="M593.5,997.355c-.184,1.425-.4,2.845-.626,4.263s-.475,2.832-.71,4.248-.506,2.827-.783,4.236l-.423,2.112c-.153.7-.3,1.406-.46,2.106l-.215-.038c.086-.714.194-1.424.291-2.136l.327-2.129q.335-2.128.718-4.247c.265-1.411.509-2.826.791-4.234s.559-2.817.875-4.219Z" transform="translate(-528.935 -935.391)" fill="#1f3c88"/>
      <path id="Path_17231" data-name="Path 17231" d="M895.7,972.328c.393,1.851.756,3.708,1.112,5.566s.688,3.72,1.033,5.58q.494,2.794.966,5.592l.453,2.8c.14.936.29,1.87.419,2.807l-.2.036c-.2-.925-.385-1.853-.577-2.779l-.543-2.785q-.526-2.788-1.026-5.581c-.318-1.865-.656-3.726-.959-5.593s-.609-3.734-.88-5.607Z" transform="translate(-802.421 -912.999)" fill="#1f3c88"/>
      <g id="Group_11848" data-name="Group 11848" transform="translate(86.332 67.921)" opacity="0.4">
        <g id="Group_11847" data-name="Group 11847" transform="translate(0 0)">
          <g id="Group_11846" data-name="Group 11846" clip-path="url(#clip-path-9)">
            <path id="Path_17232" data-name="Path 17232" d="M838.94,1055c.346,3.378-.173,20.874-8.315,21.134l.087,3.811,12.819-.78Z" transform="translate(-830.625 -1055)" fill="#1f3c88"/>
          </g>
        </g>
      </g>
      <path id="Path_17233" data-name="Path 17233" d="M745.1,1233.485c5.781-2.469,6.887-2.376,7.665-2.339,2.663.13,6.5,5.457,6.5,5.457l-.065.974H744.583Z" transform="translate(-667.194 -1144.906)" fill="#e28b6d"/>
      <rect id="Rectangle_6838" data-name="Rectangle 6838" width="17.994" height="2.728" transform="translate(82.153 91.718)" fill="#fff"/>
      <path id="Path_17234" data-name="Path 17234" d="M929.393,1069.336H898.125l7.016-27.942h31.267Z" transform="translate(-804.778 -974.887)" fill="#fbc343"/>
      <path id="Path_17235" data-name="Path 17235" d="M931.48,1196.712c-3.094-.462-13.1-2.541-33.711,10.018l-.476,1.732,31.354-.323Z" transform="translate(-804.031 -1113.691)" fill="#c89b35"/>
      <path id="Path_17236" data-name="Path 17236" d="M1184.184,1259.02c-.2,1.315-.26,3.248-4.336,3l-1.2-.617,1.136-1.25,2.452-1.25Z" transform="translate(-1056.143 -1169.792)" fill="#f9b384"/>
      <path id="Path_17237" data-name="Path 17237" d="M1194.368,1225.833s2.231,2.914-.011,3.811a12.9,12.9,0,0,1-4.775.877c1.039-2.923,4.417-2.728,4.417-2.728Z" transform="translate(-1065.942 -1140.156)" fill="#f9b384"/>
      <path id="Path_17238" data-name="Path 17238" d="M1192.494,1207.708s3.075,2.858.216,3.659a32.618,32.618,0,0,1-5.283,1.213c-.216-2.144,3.789-3.53,3.789-3.53Z" transform="translate(-1064.003 -1123.915)" fill="#f9b384"/>
      <path id="Path_17239" data-name="Path 17239" d="M1190.376,1183.75s4.2,2.555.26,3.984-4.872,1.408-4.872,1.408c-.217-2.144,4.006-2.88,4.006-2.88Z" transform="translate(-1062.513 -1102.447)" fill="#f9b384"/>
      <path id="Path_17240" data-name="Path 17240" d="M1185.833,1220.5s4.58-.65,5.944-1.754" transform="translate(-1062.582 -1133.809)" fill="none" stroke="#e28b6d" stroke-miterlimit="10" stroke-width="2.5"/>
      <path id="Path_17241" data-name="Path 17241" d="M1187.5,1239.835s4.764-.671,6.258-1.711" transform="translate(-1064.076 -1151.171)" fill="none" stroke="#e28b6d" stroke-miterlimit="10" stroke-width="2.5"/>
      <path id="Path_17242" data-name="Path 17242" d="M1189.583,1265.058a11.726,11.726,0,0,0,4.417-.682" transform="translate(-1065.942 -1174.693)" fill="none" stroke="#e28b6d" stroke-miterlimit="10" stroke-width="2.5"/>
      <path id="Path_17243" data-name="Path 17243" d="M762.708,1597.049c.476-.26,8.012,1.386,16.37-4.807l-10.783-3.075Z" transform="translate(-683.435 -1465.726)" fill="#102048"/>
      <path id="Path_17244" data-name="Path 17244" d="M817.69,1304.522c.359-.512.668-1.265.216-1.7-.47-.452-1.24-.054-1.733.372a20.814,20.814,0,0,0-2.391,2.443l-18.2,3.383-24.945,6.062,4.289,5.474c12.472.909,19.576,1.144,27.381-.234,3.979-.7,7.535-1.426,10.188-3.588.631-.517,1.229-1.385.818-2.089a1.539,1.539,0,0,0-1.434-.6,18.428,18.428,0,0,0,3.856-1.375c.548-.265,1.159-.681,1.146-1.289a1.128,1.128,0,0,0-.766-.961,2.979,2.979,0,0,0-1.286-.112,17.6,17.6,0,0,0-4.869,1.076c2.843-1.985,5.735-4.04,7.735-6.87m-7.774,6.9c0-.005,0-.008.008-.013a.1.1,0,0,0,.026-.01l-.034.023" transform="translate(-690.537 -1208.967)" fill="#b35341"/>
      <path id="Path_17245" data-name="Path 17245" d="M821.458,1248.4s24.295-11.563,32.22-11.043,7.665,10.393,4.677,14.681-10,10-35.858,8.315Z" transform="translate(-736.079 -1150.464)" fill="#102048"/>
      <path id="Path_17246" data-name="Path 17246" d="M718.629,1569.554a13.706,13.706,0,0,1-5.748.055s-3.326.863-6.6,1.541a30.389,30.389,0,0,1-5.527.8c-.1,0-.192-.008-.291-.016a10.2,10.2,0,0,1-6.293-2.874.026.026,0,0,0-.01-.013,4,4,0,0,1-.855-1.427c-.78-2.427.868-5.371,9.788-4.766,0,0,2.944-.691,3.638-2.858s-4.417-12.558-4.417-12.558l7.276-4.937,7.146,7.925s1.083,7.146,1.083,9.484c0,0,3.03,4.332,3.464,6.236.278,1.216-.33,2.752-2.653,3.409" transform="translate(-621.092 -1423.91)" fill="#d3dfff"/>
      <path id="Path_17247" data-name="Path 17247" d="M544.855,1158.558c.833-.321,1.682-.58,2.541-.818.43-.117.862-.227,1.3-.313q.33-.067.667-.114c.113-.015.226-.027.344-.036a2.429,2.429,0,0,1,.364.007,10.734,10.734,0,0,1,2.62.7c.836.318,1.655.675,2.458,1.061s1.591.806,2.362,1.251,1.53.914,2.268,1.414a24.451,24.451,0,0,1,4.09,3.432l-.154.155q-.98-.887-2.04-1.673c-.7-.53-1.428-1.027-2.17-1.5a44.787,44.787,0,0,0-4.594-2.589c-.788-.39-1.59-.751-2.4-1.072a11.888,11.888,0,0,0-2.477-.743,2.048,2.048,0,0,0-.3-.017c-.1.005-.211.013-.317.024-.214.024-.429.054-.644.092-.43.075-.861.162-1.29.259-.858.2-1.713.423-2.553.682Z" transform="translate(-488.225 -1078.721)" fill="#1f3c88"/>
      <path id="Path_17248" data-name="Path 17248" d="M584.218,1448.712c2.923-.2,5.8.014,7.882-.715,2.23-.779,8.055-.26,8.055-.26l-3.2-4.612-12.992,3.248Z" transform="translate(-523.264 -1334.864)" fill="#b35341"/>
      <path id="Path_17249" data-name="Path 17249" d="M569.154,1215.4c-2.988-4.807-2.988-14.291.78-18.578,4.306-4.9,13.512-6.756,18.319-1.039s13.642,26.634,15.46,40.795c0,0-9.744-3.248-16.37,4.807,0,0-8.7-19.878-10.524-27.153l-4.937,3.9Z" transform="translate(-508.069 -1110.061)" fill="#1f3c88"/>
      <path id="Path_17250" data-name="Path 17250" d="M472.529,1402.955a3.681,3.681,0,0,0-3.118.736s-14.2-.3-17.366,2.9-.736,7.492,3.9,7.969c3.889.4,11.439-2.617,13.765-3.6a4.6,4.6,0,0,1,1.486-.352l3.847-.252Z" transform="translate(-403.779 -1298.785)" fill="#d3dfff"/>
      <path id="Path_17251" data-name="Path 17251" d="M680.852,748.541s-.953-3.157-3.049-2.368-.98,4.9,3.157,6.043Z" transform="translate(-606.43 -710.236)" fill="#f9b384"/>
      <path id="Path_17252" data-name="Path 17252" d="M693.481,931.715a15.085,15.085,0,0,0,3.306,1.8,9.763,9.763,0,0,0,3.638.686,8.044,8.044,0,0,0,3.558-.883l.415-.211c.136-.075.26-.169.392-.253a6.064,6.064,0,0,0,.758-.548l.365-.3.183-.148c.059-.051.112-.11.169-.164q.333-.334.675-.664l.155.131q-.307.371-.624.737c-.054.06-.1.124-.16.182l-.176.167-.353.334a6.385,6.385,0,0,1-.761.607c-.133.094-.259.2-.4.284l-.426.243a7.809,7.809,0,0,1-3.766,1,9.621,9.621,0,0,1-3.807-.794,12.493,12.493,0,0,1-3.267-2.049Z" transform="translate(-621.292 -876)" fill="#1f3c88"/>
      <path id="Path_17253" data-name="Path 17253" d="M639.039,1323.942l1.126,3.939c.383,1.31.741,2.627,1.141,3.932s.782,2.613,1.193,3.913c.205.65.408,1.3.634,1.943.11.322.209.649.326.969s.229.642.339.965l-.187.078q-.435-.932-.819-1.887c-.255-.637-.488-1.281-.723-1.925-.461-1.291-.87-2.6-1.256-3.912s-.746-2.634-1.071-3.963-.64-2.661-.9-4.006Z" transform="translate(-572.442 -1228.067)" fill="#102048"/>
      <g id="Group_11851" data-name="Group 11851" transform="translate(82.813 139.735)" opacity="0.1">
        <g id="Group_11850" data-name="Group 11850" transform="translate(0 0)">
          <g id="Group_11849" data-name="Group 11849" clip-path="url(#clip-path-10)">
            <path id="Path_17254" data-name="Path 17254" d="M811.495,1751.847a13.7,13.7,0,0,1-5.748.055s-5.5,1.408-8.976,1.961c3.573-.715,8.77-5.132,8.185-7.925,5.132,1.689,6.528,4.255,6.539,5.91" transform="translate(-796.771 -1745.937)" fill="#1f3c88"/>
          </g>
        </g>
      </g>
      <g id="Group_11854" data-name="Group 11854" transform="translate(72.647 144.489)" opacity="0.4">
        <g id="Group_11853" data-name="Group 11853" transform="translate(0 0)">
          <g id="Group_11852" data-name="Group 11852" clip-path="url(#clip-path-11)">
            <path id="Path_17255" data-name="Path 17255" d="M710.032,1793.32a5.183,5.183,0,0,1-2.687,1.647,7.342,7.342,0,0,1-1.663.242,10.2,10.2,0,0,1-6.293-2.874.026.026,0,0,0-.01-.013,6.128,6.128,0,0,1-.421-.647,10.478,10.478,0,0,0,2.492,1.738,9.9,9.9,0,0,0,1.38.561c.231.088.473.14.712.208a6.22,6.22,0,0,0,.728.146,8.04,8.04,0,0,0,5.763-1.008" transform="translate(-698.958 -1791.675)" fill="#1f3c88"/>
          </g>
        </g>
      </g>
      <path id="Path_17256" data-name="Path 17256" d="M687.6,757.515a2.135,2.135,0,0,0-.339-.79,2.373,2.373,0,0,0-.573-.618.638.638,0,0,0-.664-.123,1.506,1.506,0,0,0-.528.626l-.144-.05a1.3,1.3,0,0,1,.5-.871.778.778,0,0,1,.566-.116,1.213,1.213,0,0,1,.5.218,2.151,2.151,0,0,1,.636.768,1.666,1.666,0,0,1,.2.959Z" transform="translate(-614.118 -718.762)" fill="#e28b6d"/>
      <path id="Path_17257" data-name="Path 17257" d="M815.575,765.494c-.091.448-.429.758-.754.692a.743.743,0,0,1-.423-.932c.091-.448.429-.758.754-.691a.742.742,0,0,1,.424.931" transform="translate(-729.732 -726.821)" fill="#102048"/>
      <path id="Path_17258" data-name="Path 17258" d="M766.861,763.781c-.074.452-.4.774-.726.721s-.533-.463-.46-.914.4-.774.726-.721.533.463.46.914" transform="translate(-686.08 -725.304)" fill="#102048"/>
      <path id="Path_17259" data-name="Path 17259" d="M792.441,777.467c.031.369.046.736.05,1.1a.654.654,0,0,0,.193.38,4.045,4.045,0,0,1,.378.434.9.9,0,0,1,.134.315,1.12,1.12,0,0,1,.022.331,1.092,1.092,0,0,1-.239.6.831.831,0,0,1-.267.213.76.76,0,0,1-.332.07,1.076,1.076,0,0,1-.572-.207l.072-.134a1.022,1.022,0,0,0,.485.069.478.478,0,0,0,.343-.22.794.794,0,0,0,.029-.829c-.08-.128-.213-.249-.339-.407a.944.944,0,0,1-.24-.612c.028-.377.073-.747.131-1.115Z" transform="translate(-709.512 -738.38)" fill="#e28b6d"/>
      <path id="Path_17260" data-name="Path 17260" d="M757.591,750.809a2.433,2.433,0,0,1,.73-.5,1.928,1.928,0,0,1,.9-.173,1.644,1.644,0,0,1,.875.321,2.087,2.087,0,0,1,.584.677l-.12.094a4.224,4.224,0,0,0-.649-.482,1.7,1.7,0,0,0-.717-.222,3.015,3.015,0,0,0-1.517.41Z" transform="translate(-678.849 -713.897)" fill="#102048"/>
      <path id="Path_17261" data-name="Path 17261" d="M808.457,753.942a1.11,1.11,0,0,1,.569-.625,1.727,1.727,0,0,1,.829-.185,1.7,1.7,0,0,1,.82.225,1.327,1.327,0,0,1,.561.62l-.128.083a1.831,1.831,0,0,0-1.263-.541,1.533,1.533,0,0,0-1.251.489Z" transform="translate(-724.43 -716.586)" fill="#102048"/>
      <path id="Path_17262" data-name="Path 17262" d="M774.325,819.63l3.447.245s-1.923,2.55-3.447-.245" transform="translate(-693.845 -776.172)" fill="#fff"/>
      <g id="Group_11857" data-name="Group 11857" transform="translate(84.88 39.838)" opacity="0.4">
        <g id="Group_11856" data-name="Group 11856" transform="translate(0 0)">
          <g id="Group_11855" data-name="Group 11855" clip-path="url(#clip-path-12)">
            <path id="Path_17263" data-name="Path 17263" d="M818.913,784.818a17.962,17.962,0,0,1-1.117,3.77,1.99,1.99,0,0,1,.855-3.788,1.765,1.765,0,0,1,.262.018" transform="translate(-816.658 -784.8)" fill="#ee6f57"/>
          </g>
        </g>
      </g>
      <g id="Group_11860" data-name="Group 11860" transform="translate(76.371 39.384)" opacity="0.4">
        <g id="Group_11859" data-name="Group 11859" transform="translate(0 0)">
          <g id="Group_11858" data-name="Group 11858" clip-path="url(#clip-path-13)">
            <path id="Path_17264" data-name="Path 17264" d="M738.776,782.408a1.992,1.992,0,1,1-1.992-1.992,1.992,1.992,0,0,1,1.992,1.992" transform="translate(-734.792 -780.416)" fill="#ee6f57"/>
          </g>
        </g>
      </g>
      <path id="Path_17265" data-name="Path 17265" d="M279.47,565.275a13.641,13.641,0,1,0-5.182,3.574l7.323,2.989Z" transform="translate(-233.545 -527.839)" fill="#fff"/>
      <path id="Path_17266" data-name="Path 17266" d="M279.47,565.275a13.641,13.641,0,1,0-5.182,3.574l7.323,2.989Z" transform="translate(-233.545 -527.839)" fill="none" stroke="#8cbfbe" stroke-miterlimit="10" stroke-width="1.5"/>
      <path id="Path_17267" data-name="Path 17267" d="M317.245,664.355a1.457,1.457,0,1,1-1.457-1.457,1.457,1.457,0,0,1,1.457,1.457" transform="translate(-286.083 -635.73)" fill="#8cbfbe"/>
      <path id="Path_17268" data-name="Path 17268" d="M375.856,664.355A1.457,1.457,0,1,1,374.4,662.9a1.457,1.457,0,0,1,1.457,1.457" transform="translate(-338.602 -635.73)" fill="#8cbfbe"/>
      <path id="Path_17269" data-name="Path 17269" d="M434.467,664.355a1.457,1.457,0,1,1-1.457-1.457,1.457,1.457,0,0,1,1.457,1.457" transform="translate(-391.121 -635.73)" fill="#8cbfbe"/>
      <g id="Group_11881" data-name="Group 11881" transform="translate(122.987)">
        <path id="Path_17313" data-name="Path 17313" d="M1.75,1.749V52.884l7-6.026H57.493V1.749Z" transform="translate(-1.585 -1.585)" fill="#fff"/>
        <path id="Path_17315" data-name="Path 17315" d="M91.493,161.806a16.139,16.139,0,0,1-12.373-9.978c-1.753-4.071-2.129-9.854,4.1-11.45,4.186-1.073,8.5-.072,12.714-.616,3.415-.441,6.545-2.072,9.568-3.54,4.737-2.3,10.23-3.252,13.088,1.277,2.541,4.028,2.009,9.559-.73,13.7-4.8,7.26-16.853,12.086-26.365,10.6" transform="translate(-71.699 -120.136)" fill="#d3dfff"/>
        <path id="Path_17316" data-name="Path 17316" d="M85.325,39.065a2.578,2.578,0,1,1-2.578-2.578,2.578,2.578,0,0,1,2.578,2.578" transform="translate(-74.819 -33.268)" fill="#ee6f57"/>
        <path id="Path_17317" data-name="Path 17317" d="M95.7,52.915l-.564-.761-.568.761H94L94.86,51.8l-.819-1.082h.572l.539.72.539-.72h.556l-.823,1.074.86,1.124Z" transform="translate(-87.216 -46.019)" fill="#fff"/>
        <path id="Path_17318" data-name="Path 17318" d="M149.214,39.065a2.578,2.578,0,1,1-2.578-2.578,2.578,2.578,0,0,1,2.578,2.578" transform="translate(-132.068 -33.268)" fill="#fbc343"/>
        <rect id="Rectangle_6870" data-name="Rectangle 6870" width="2.075" height="0.566" transform="translate(13.531 5.513)" fill="#fff"/>
        <path id="Path_17319" data-name="Path 17319" d="M1.75,1.749V52.884l7-6.026H57.493V1.749Z" transform="translate(-1.586 -1.585)" fill="none"/>
        <g id="Group_11877" data-name="Group 11877" transform="translate(0 0)">
          <g id="Group_11876" data-name="Group 11876" clip-path="url(#clip-path-14)">
            <path id="Path_17320" data-name="Path 17320" d="M1.75,1.75V52.885l7-6.026H57.493V1.75Z" transform="translate(-1.586 -1.585)" fill="none" stroke="#708cd5" stroke-miterlimit="10" stroke-width="3.5"/>
          </g>
        </g>
        <rect id="Rectangle_6872" data-name="Rectangle 6872" width="56.072" height="53.779" transform="translate(0 0)" fill="none"/>
        <g id="Group_11880" data-name="Group 11880" transform="translate(4.391 6.397)">
          <g id="Group_11865" data-name="Group 11865" transform="translate(30.709 10.406)" opacity="0.6">
            <g id="Group_11864" data-name="Group 11864">
              <g id="Group_11863" data-name="Group 11863" clip-path="url(#clip-path-15)">
                <path id="Path_17273" data-name="Path 17273" d="M524.7,194.635s3.593-17.937,8.424-16.779-5.071,11.486-5.952,16.741Z" transform="translate(-524.698 -177.802)" fill="#b2c9c6"/>
              </g>
            </g>
          </g>
          <path id="Path_17274" data-name="Path 17274" d="M545.257,266.477s6.047-13.22,10.255-11.468-6.388,7.974-8,11.877Z" transform="translate(-513.345 -239.933)" fill="#c6dbd8"/>
          <path id="Path_17275" data-name="Path 17275" d="M565,296.056a23.72,23.72,0,0,1,4.71-6.948,34.968,34.968,0,0,1,3.163-3.005l-.073-.091a35.087,35.087,0,0,0-3.174,3.016,23.832,23.832,0,0,0-4.733,6.985Z" transform="translate(-531.828 -269.273)" fill="#b2c9c6"/>
          <path id="Path_17276" data-name="Path 17276" d="M552.816,393.379c-1.138.71-.263,2.5-1.794,2.662-1.295.133-1.434.059-1.723.549a2.063,2.063,0,0,0-.219.54,1.219,1.219,0,0,1-.538.773c-2.068,1.178-6.256-1-4.6-3.627a1.571,1.571,0,0,1,.6-.464c1.372-.748,2.064-.243,2.595-2.366s2.966-.225,3.91-.661,1.7-1.036,2.828-.276.082,2.162-1.057,2.871" transform="translate(-511.751 -367.311)" fill="#b2c9c6"/>
          <g id="Group_11868" data-name="Group 11868" transform="translate(33.676 23.121)" opacity="0.5">
            <g id="Group_11867" data-name="Group 11867">
              <g id="Group_11866" data-name="Group 11866" clip-path="url(#clip-path-16)">
                <path id="Path_17277" data-name="Path 17277" d="M575.463,405.961l-.071-.052c.023-.031,2.379-3.163,8.725-5.607l.032.082c-6.323,2.435-8.663,5.545-8.686,5.577" transform="translate(-575.392 -399.994)" fill="#74a1bd"/>
                <path id="Path_17278" data-name="Path 17278" d="M605.44,413.028a3.262,3.262,0,0,1-1.5-1.03l.074-.048a3.249,3.249,0,0,0,1.456,1Z" transform="translate(-602.273 -410.961)" fill="#74a1bd"/>
                <path id="Path_17279" data-name="Path 17279" d="M628.471,397.957a2.194,2.194,0,0,1-.56-1.765,5.9,5.9,0,0,1,.148-1.146l.085.022c-.005.02-.506,2.057.383,2.823Z" transform="translate(-624.836 -395.046)" fill="#74a1bd"/>
                <path id="Path_17280" data-name="Path 17280" d="M662.049,429.36c-.131-.048-.2-.083-.208-.085l.039-.079a4.413,4.413,0,0,0,3.244.09l.032.082a4.479,4.479,0,0,1-3.107-.008" transform="translate(-656.781 -427.197)" fill="#74a1bd"/>
                <path id="Path_17281" data-name="Path 17281" d="M674,435.585a2.081,2.081,0,0,1-.93-.959,1.542,1.542,0,0,1-.147-.54l.088,0a1.841,1.841,0,0,0,1.031,1.424Z" transform="translate(-667.217 -431.799)" fill="#74a1bd"/>
              </g>
            </g>
          </g>
          <path id="Path_17282" data-name="Path 17282" d="M702.96,354.368c.529-.255.767-.162.867.045s.023.451-.506.706a2.642,2.642,0,0,1-1.61.313,2.585,2.585,0,0,1,1.249-1.063" transform="translate(-660.642 -333.483)" fill="#b2c9c6"/>
          <path id="Path_17283" data-name="Path 17283" d="M684.248,345.968c.263-.486.495-.547.685-.444s.267.331,0,.817a2.486,2.486,0,0,1-1.054,1.126,2.433,2.433,0,0,1,.365-1.5" transform="translate(-643.846 -325.262)" fill="#b2c9c6"/>
          <path id="Path_17284" data-name="Path 17284" d="M51.074,501.672c0,1.338-10.052,3.9-22.4,3.9s-22.307-2.561-22.307-3.9,10.007-2.423,22.352-2.423,22.352,1.085,22.352,2.423" transform="translate(-5.998 -470.03)" fill="#ccd39c"/>
          <path id="Path_17285" data-name="Path 17285" d="M142.37,536.258l-.011-.018a.348.348,0,0,0,.126-.18.13.13,0,0,0-.021-.094.057.057,0,0,0-.049-.03h0c-.1,0-.233.223-.235.226l-.025.041.008-.049s.03-.2-.031-.257a.071.071,0,0,0-.08-.008.123.123,0,0,0-.074.075.478.478,0,0,0,.034.28l-.017.01a.492.492,0,0,1-.034-.3.143.143,0,0,1,.086-.088.087.087,0,0,1,.1.012c.05.049.048.17.042.235.045-.065.146-.2.228-.2a.076.076,0,0,1,.066.039.154.154,0,0,1,.024.111.364.364,0,0,1-.134.194" transform="translate(-133.639 -504.496)" fill="#42428e"/>
          <path id="Path_17286" data-name="Path 17286" d="M644.025,543.72a.187.187,0,0,0-.067-.146.271.271,0,0,0-.226,0l-.048.02.034-.043s.1-.125.079-.216a.109.109,0,0,0-.074-.076c-.175-.069-.318.333-.325.353h0l-.024-.01h0a.2.2,0,0,0,0-.144.128.128,0,0,0-.114-.056.11.11,0,0,0-.107.041.226.226,0,0,0,0,.16l-.024.011a.253.253,0,0,1,0-.187.132.132,0,0,1,.129-.053.151.151,0,0,1,.134.069.161.161,0,0,1,.019.067c.057-.128.175-.334.32-.277a.135.135,0,0,1,.09.1.3.3,0,0,1-.06.206.254.254,0,0,1,.209.02.215.215,0,0,1,.078.168Z" transform="translate(-605.471 -511.425)" fill="#42428e"/>
          <path id="Path_17287" data-name="Path 17287" d="M502.338,554.428c-.011-.008-.279-.191-.279-.352a.147.147,0,0,1,.073-.125.179.179,0,0,1,.165-.026c.136.046.234.24.26.3.138-.093.241-.115.306-.067.093.069.07.254.068.262l-.027,0s.021-.173-.057-.232c-.057-.043-.154-.017-.289.076l-.013.009-.006-.015s-.106-.247-.25-.3a.155.155,0,0,0-.143.023.116.116,0,0,0-.06.1c0,.144.263.324.266.326Z" transform="translate(-472.675 -521.497)" fill="#42428e"/>
          <path id="Path_17288" data-name="Path 17288" d="M375.294,555.523a1.9,1.9,0,0,1-.194-.279.539.539,0,0,1-.084-.5c.023-.045.052-.065.084-.061.109.014.228.334.29.524a1.8,1.8,0,0,1,.072-.867.122.122,0,0,1,.091-.056.09.09,0,0,1,.084.041c.1.145.01.659-.042.9.038-.07.093-.149.149-.158a.053.053,0,0,1,.059.031.532.532,0,0,1-.149.425l-.02-.02a.518.518,0,0,0,.146-.39.027.027,0,0,0-.032-.016c-.072.012-.156.188-.182.254l-.026-.01c0-.008.2-.821.075-1a.066.066,0,0,0-.061-.03.1.1,0,0,0-.072.045c-.146.2-.053.976-.052.984l-.026.007c-.048-.172-.2-.622-.307-.636-.021,0-.04.012-.057.046-.138.263.27.738.274.742Z" transform="translate(-353.037 -521.843)" fill="#42428e"/>
          <path id="Path_17289" data-name="Path 17289" d="M264.294,538.733s-.4-.465-.265-.729.373.569.373.569-.121-.985.13-1,0,1,0,1,.093-.238.184-.253.065.2-.1.413Z" transform="translate(-248.549 -506.107)" fill="#bed5dc"/>
          <path id="Path_17290" data-name="Path 17290" d="M264.082,535.964c-.019-.022-.464-.54-.3-.847.026-.049.056-.071.091-.066.07.009.151.133.243.369.028.072.053.144.072.2a1.963,1.963,0,0,1,.078-.945.132.132,0,0,1,.1-.061.1.1,0,0,1,.091.045c.113.158.011.716-.045.977.042-.077.1-.162.162-.172a.057.057,0,0,1,.064.034.577.577,0,0,1-.162.462l-.022-.022a.563.563,0,0,0,.158-.424.029.029,0,0,0-.034-.017c-.078.013-.169.2-.2.276l-.028-.011s.056-.227.093-.473a1.068,1.068,0,0,0-.011-.61.07.07,0,0,0-.066-.033.1.1,0,0,0-.078.048c-.159.219-.057,1.061-.056,1.069l-.029.007c-.053-.187-.215-.676-.334-.692-.023,0-.043.013-.062.05-.15.286.294.8.3.807Z" transform="translate(-248.308 -503.327)" fill="#42428e"/>
          <path id="Path_17291" data-name="Path 17291" d="M540.912,514.439a2.013,2.013,0,0,1-.206-.3.573.573,0,0,1-.089-.532c.025-.048.055-.069.089-.065.068.009.148.13.238.361.027.07.052.14.07.2a1.92,1.92,0,0,1,.076-.924.129.129,0,0,1,.1-.059.1.1,0,0,1,.089.044c.111.155.011.7-.044.956.041-.075.1-.158.158-.168a.056.056,0,0,1,.063.033.564.564,0,0,1-.158.452l-.022-.021a.55.55,0,0,0,.155-.415.028.028,0,0,0-.034-.017c-.076.012-.165.2-.193.27l-.027-.011s.055-.222.091-.462a1.044,1.044,0,0,0-.011-.6.07.07,0,0,0-.065-.032.1.1,0,0,0-.076.047c-.155.214-.056,1.037-.055,1.045l-.028.007c-.051-.183-.211-.661-.327-.676-.022,0-.042.013-.061.049-.147.279.287.784.292.789Z" transform="translate(-508.943 -483.091)" fill="#42428e"/>
          <path id="Path_17292" data-name="Path 17292" d="M47.75,9.23C30.291,11.189,24.6,15.087,22.889,29.386S45.118,47,57.613,40.194,70.491,20.03,66.526,14.83c-3.068-4.024-10.112-5.753-15.9-5.753a25.911,25.911,0,0,0-2.874.153" transform="translate(-21.467 -8.546)" fill="none"/>
          <path id="Path_17294" data-name="Path 17294" d="M48.085,164.686c.5-.044.632-.216.614-.411s-.18-.34-.678-.3a2.249,2.249,0,0,0-1.314.474,2.2,2.2,0,0,0,1.377.233" transform="translate(-43.974 -154.374)" fill="#c6dbd8"/>
          <path id="Path_17295" data-name="Path 17295" d="M87.006,199.871c.5-.059.625-.234.6-.428s-.189-.335-.686-.276a2.25,2.25,0,0,0-1.3.511,2.2,2.2,0,0,0,1.383.194" transform="translate(-80.612 -187.497)" fill="#c6dbd8"/>
          <path id="Path_17296" data-name="Path 17296" d="M138.18,142.237l.072-.061a13.024,13.024,0,0,1-1.8-3.164,18.346,18.346,0,0,1-1.251-8.828l-.094-.009a18.437,18.437,0,0,0,1.26,8.878,13.113,13.113,0,0,0,1.816,3.185" transform="translate(-127.11 -122.556)" fill="#c6dbd8"/>
          <path id="Path_17297" data-name="Path 17297" d="M67.808,128.272l.035-.088a8.365,8.365,0,0,1-4.333-4.822l-.09.028a8.465,8.465,0,0,0,4.388,4.881" transform="translate(-59.708 -116.142)" fill="#c6dbd8"/>
          <path id="Path_17298" data-name="Path 17298" d="M136.084,149a3.351,3.351,0,0,0,1.1-1.381l-.089-.033a3.176,3.176,0,0,1-1.437,1.561l.042.085a2.776,2.776,0,0,0,.386-.231" transform="translate(-127.717 -138.951)" fill="#c6dbd8"/>
          <path id="Path_17299" data-name="Path 17299" d="M169.2,221.266a6.426,6.426,0,0,0,2.174-5.012,1.374,1.374,0,0,1,0-.15.031.031,0,0,1-.005.01l-.076-.056c-.016.023-.017.051-.016.2a6.336,6.336,0,0,1-2.142,4.941Z" transform="translate(-159.234 -203.413)" fill="#c6dbd8"/>
          <path id="Path_17300" data-name="Path 17300" d="M175.53,217.427l.06-.073a5.719,5.719,0,0,1-1.383-2.8l-.093.018a7.851,7.851,0,0,0,.32,1.107,4.215,4.215,0,0,0,1.1,1.746" transform="translate(-163.924 -202)" fill="#c6dbd8"/>
          <path id="Path_17301" data-name="Path 17301" d="M132.795,94.98c-.145.658-.033.888.158.931s.39-.119.535-.778a3.8,3.8,0,0,0,.046-1.855,3.716,3.716,0,0,0-.738,1.7" transform="translate(-124.961 -87.818)" fill="#c6dbd8"/>
          <path id="Path_17302" data-name="Path 17302" d="M151.024,123.889c-.337.584-.3.837-.13.935s.408,0,.744-.58a3.8,3.8,0,0,0,.6-1.755,3.716,3.716,0,0,0-1.217,1.4" transform="translate(-141.944 -115.319)" fill="#c6dbd8"/>
          <path id="Path_17303" data-name="Path 17303" d="M168.164,190.752c.072.495.25.619.444.591s.33-.2.258-.693a2.249,2.249,0,0,0-.545-1.286,2.2,2.2,0,0,0-.157,1.388" transform="translate(-158.289 -178.281)" fill="#c6dbd8"/>
          <path id="Path_17304" data-name="Path 17304" d="M110.938,138.137c.19.462.393.54.575.465s.272-.272.082-.735a2.25,2.25,0,0,0-.842-1.115,2.2,2.2,0,0,0,.185,1.384" transform="translate(-104.234 -128.749)" fill="#c6dbd8"/>
          <path id="Path_17305" data-name="Path 17305" d="M166.817,248.522c.312.39.529.407.682.285s.184-.338-.128-.728a2.25,2.25,0,0,0-1.121-.833,2.2,2.2,0,0,0,.567,1.276" transform="translate(-156.52 -232.776)" fill="#c6dbd8"/>
          <path id="Path_17306" data-name="Path 17306" d="M200.484,201.213c-.036.5.112.658.307.672s.364-.123.4-.621a2.249,2.249,0,0,0-.257-1.373,2.2,2.2,0,0,0-.451,1.322" transform="translate(-188.745 -188.192)" fill="#c6dbd8"/>
          <path id="Path_17308" data-name="Path 17308" d="M113.435,268.475c.576.014.743.2.738.427s-.181.4-.757.391a2.594,2.594,0,0,1-1.547-.446,2.538,2.538,0,0,1,1.567-.372" transform="translate(-105.321 -252.761)" fill="#c6dbd8"/>
          <rect id="Rectangle_6849" data-name="Rectangle 6849" width="14.046" height="7.126" transform="translate(9.364 22.867)" fill="#97b8b2"/>
          <rect id="Rectangle_6850" data-name="Rectangle 6850" width="10.406" height="6.466" transform="translate(23.74 23.221)" fill="#97b8b2"/>
          <path id="Path_17309" data-name="Path 17309" d="M329.525,277.509h15.588l-2.345-7.5H329.525Z" transform="translate(-310.239 -254.203)" fill="#e07355"/>
          <path id="Path_17310" data-name="Path 17310" d="M154.191,215.225h14.716v-3.944l-7.358-7.435-7.358,7.435Z" transform="translate(-145.167 -191.915)" fill="#c0d9d6"/>
          <path id="Path_17311" data-name="Path 17311" d="M140.345,187.865l8.676,8.759-.516.462-8.161-8.239-8.164,8.242-.512-.466Z" transform="translate(-123.963 -176.87)" fill="#ef8062"/>
          <rect id="Rectangle_6851" data-name="Rectangle 6851" width="4.936" height="3.309" transform="translate(14.029 17.216)" fill="#deebe9"/>
          <rect id="Rectangle_6852" data-name="Rectangle 6852" width="4.936" height="0.076" transform="translate(14.029 20.449)" fill="#b1ccc8"/>
          <rect id="Rectangle_6853" data-name="Rectangle 6853" width="4.451" height="2.824" transform="translate(14.272 17.458)" fill="#7ca1ce"/>
          <rect id="Rectangle_6854" data-name="Rectangle 6854" width="0.243" height="3.053" transform="translate(17.177 17.346)" fill="#deebe9"/>
          <rect id="Rectangle_6855" data-name="Rectangle 6855" width="0.243" height="3.053" transform="translate(15.575 17.346)" fill="#deebe9"/>
          <rect id="Rectangle_6856" data-name="Rectangle 6856" width="4.936" height="3.309" transform="translate(10.882 24.435)" fill="#deebe9"/>
          <rect id="Rectangle_6857" data-name="Rectangle 6857" width="4.451" height="2.824" transform="translate(11.124 24.677)" fill="#7ca1ce"/>
          <rect id="Rectangle_6858" data-name="Rectangle 6858" width="0.243" height="3.053" transform="translate(14.029 24.565)" fill="#deebe9"/>
          <rect id="Rectangle_6859" data-name="Rectangle 6859" width="0.243" height="3.053" transform="translate(12.428 24.565)" fill="#deebe9"/>
          <rect id="Rectangle_6860" data-name="Rectangle 6860" width="5.688" height="0.361" transform="translate(13.653 20.491)" fill="#deebe9"/>
          <rect id="Rectangle_6861" data-name="Rectangle 6861" width="0.679" height="6.796" transform="translate(16.497 22.867)" fill="#c0d9d6"/>
          <rect id="Rectangle_6862" data-name="Rectangle 6862" width="0.679" height="6.796" transform="translate(23.061 22.867)" fill="#c0d9d6"/>
          <rect id="Rectangle_6863" data-name="Rectangle 6863" width="0.679" height="6.821" transform="translate(9.024 22.867)" fill="#c0d9d6"/>
          <rect id="Rectangle_6864" data-name="Rectangle 6864" width="2.368" height="5.075" transform="translate(18.946 24.853)" fill="#deebe9"/>
          <rect id="Rectangle_6865" data-name="Rectangle 6865" width="1.883" height="4.59" transform="translate(19.189 25.096)" fill="#b2c9c6"/>
          <path id="Path_17312" data-name="Path 17312" d="M330.1,465.968h0a.041.041,0,0,0,.041-.041v-.446a.041.041,0,0,0-.083,0v.446a.041.041,0,0,0,.041.041" transform="translate(-310.746 -438.199)" fill="#436e8e"/>
          <rect id="Rectangle_6866" data-name="Rectangle 6866" width="26.042" height="0.699" transform="translate(8.648 29.687)" fill="#8ea19e"/>
          <rect id="Rectangle_6867" data-name="Rectangle 6867" width="47.291" height="35.541" transform="translate(0 0)" fill="none"/>
        </g>
      </g>
    </g>
  </g>
</svg>
